<svg xmlns="http://www.w3.org/2000/svg" viewBox="0 0 32 32">
  <circle cx="16" cy="16" r="15" fill="#ffffff" stroke="#111111" stroke-width="1.5"/>
  <polygon points="16,9 20.5,12.3 18.8,17.6 13.2,17.6 11.5,12.3" fill="#111111"/>
  <polygon points="16,2 19,5 17,9 15,9 13,5" fill="#111111"/>
  <polygon points="2.5,12 7,11 9,14 7.5,17.5 3.5,17" fill="#111111"/>
  <polygon points="29.5,12 25,11 23,14 24.5,17.5 28.5,17" fill="#111111"/>
  <polygon points="8,22 12,21 14,24.5 11,28 7.5,26" fill="#111111"/>
  <polygon points="24,22 20,21 18,24.5 21,28 24.5,26" fill="#111111"/>
</svg>
